<svg data-v-423bf9ae="" xmlns="http://www.w3.org/2000/svg" viewBox="0 0 1129 183" class="iconLeftSlogan"><!----><!----><!----><g data-v-423bf9ae="" id="4c34c6fb-2009-4070-b64a-75a12635de3e" fill="#000000" transform="matrix(5.5658628465905124,0,0,5.5658628465905124,200.41486135629748,-10.909091868475379)"><path d="M4.27 12.74C6.23 12.74 7.89 11.59 7.89 9.63C7.89 5.74 3.06 6.70 3.06 4.88C3.06 4.29 3.52 4.01 4.08 4.01C4.67 4.01 5.27 4.34 5.79 4.92L7.33 3.45C6.56 2.55 5.39 1.96 4.10 1.96C2.43 1.96 0.74 2.96 0.74 5.06C0.74 8.63 5.58 7.77 5.58 9.61C5.58 10.19 5.09 10.57 4.29 10.57C3.33 10.57 2.57 10.03 2.19 9.21L0.28 10.40C0.96 11.71 2.43 12.74 4.27 12.74ZM15.91 2.10L15.91 6.32L11.64 6.32L11.64 2.10L9.33 2.10L9.33 12.60L11.64 12.60L11.64 8.37L15.91 8.37L15.91 12.60L18.20 12.60L18.20 2.10ZM24.59 12.74C27.07 12.74 28.96 11.22 28.96 9.24L28.96 2.10L26.65 2.10L26.65 8.80C26.65 9.87 25.76 10.69 24.59 10.69C23.43 10.69 22.54 9.87 22.54 8.80L22.54 2.10L20.23 2.10L20.23 9.24C20.23 11.22 22.14 12.74 24.59 12.74ZM37.29 7.28C38.08 6.86 38.59 6.13 38.59 5.02C38.59 3.17 37.19 2.10 35.42 2.10L30.98 2.10L30.98 12.60L35.82 12.60C37.57 12.60 38.94 11.59 38.94 9.73C38.94 8.45 38.27 7.67 37.29 7.28ZM36.28 5.27C36.28 5.88 35.77 6.41 35.14 6.41L33.29 6.41L33.29 4.15L35.14 4.15C35.77 4.15 36.28 4.64 36.28 5.27ZM35.49 10.55L33.29 10.55L33.29 8.30L35.49 8.30C36.14 8.30 36.63 8.82 36.63 9.43C36.63 10.06 36.14 10.55 35.49 10.55ZM47.06 2.10L47.06 6.32L42.79 6.32L42.79 2.10L40.48 2.10L40.48 12.60L42.79 12.60L42.79 8.37L47.06 8.37L47.06 12.60L49.35 12.60L49.35 2.10ZM59.83 2.10L57.26 2.10L55.02 5.65L52.78 2.10L50.17 2.10L53.87 7.67L53.87 12.60L56.18 12.60L56.18 7.65ZM65.66 12.74C68.65 12.74 71.05 10.33 71.05 7.35C71.05 4.38 68.65 1.96 65.66 1.96C62.69 1.96 60.27 4.38 60.27 7.35C60.27 10.33 62.69 12.74 65.66 12.74ZM65.66 10.48C63.89 10.48 62.55 9.12 62.55 7.35C62.55 5.58 63.89 4.22 65.66 4.22C67.45 4.22 68.79 5.58 68.79 7.35C68.79 9.12 67.45 10.48 65.66 10.48ZM77.75 6.84L77.75 8.65L80.64 8.65C80.15 9.75 79.06 10.48 77.77 10.48C76.00 10.48 74.64 9.12 74.64 7.35C74.64 5.58 76.00 4.22 77.77 4.22C79.01 4.22 80.03 4.88 80.55 5.88L82.55 4.85C81.64 3.13 79.84 1.96 77.77 1.96C74.78 1.96 72.38 4.38 72.38 7.35C72.38 10.33 74.78 12.74 77.77 12.74C80.75 12.74 83.16 10.33 83.16 7.35L83.16 6.84ZM94.06 12.74C96.15 12.74 97.95 11.57 98.84 9.85L96.84 8.82C96.34 9.82 95.31 10.48 94.06 10.48C92.30 10.48 90.95 9.12 90.95 7.35C90.95 5.58 92.30 4.22 94.06 4.22C95.31 4.22 96.34 4.88 96.84 5.88L98.84 4.85C97.95 3.13 96.15 1.96 94.06 1.96C91.09 1.96 88.67 4.38 88.67 7.35C88.67 10.33 91.09 12.74 94.06 12.74ZM105.33 12.74C108.33 12.74 110.72 10.33 110.72 7.35C110.72 4.38 108.33 1.96 105.33 1.96C102.36 1.96 99.94 4.38 99.94 7.35C99.94 10.33 102.36 12.74 105.33 12.74ZM105.33 10.48C103.56 10.48 102.22 9.12 102.22 7.35C102.22 5.58 103.56 4.22 105.33 4.22C107.12 4.22 108.47 5.58 108.47 7.35C108.47 9.12 107.12 10.48 105.33 10.48ZM119.96 2.10L119.96 9.05L114.80 2.10L112.42 2.10L112.42 12.60L114.73 12.60L114.73 5.64L119.88 12.60L122.26 12.60L122.26 2.10ZM129.34 12.74C131.43 12.74 133.23 11.57 134.12 9.85L132.13 8.82C131.62 9.82 130.59 10.48 129.34 10.48C127.58 10.48 126.23 9.12 126.23 7.35C126.23 5.58 127.58 4.22 129.34 4.22C130.59 4.22 131.62 4.88 132.13 5.88L134.12 4.85C133.23 3.13 131.43 1.96 129.34 1.96C126.37 1.96 123.95 4.38 123.95 7.35C123.95 10.33 126.37 12.74 129.34 12.74ZM142.01 4.13L142.01 2.10L135.70 2.10L135.70 12.60L142.01 12.60L142.01 10.57L138.01 10.57L138.01 8.37L141.44 8.37L141.44 6.34L138.01 6.34L138.01 4.13ZM148.23 2.10L143.76 2.10L143.76 12.60L146.07 12.60L146.07 8.35L148.23 8.35C149.99 8.35 151.36 7.04 151.36 5.27C151.36 3.52 149.99 2.10 148.23 2.10ZM147.86 6.44L146.07 6.44L146.07 4.13L147.86 4.13C148.59 4.13 149.15 4.60 149.15 5.29C149.15 5.99 148.59 6.44 147.86 6.44ZM158.94 2.10L151.34 2.10L151.34 4.15L154 4.15L154 12.60L156.29 12.60L156.29 4.15L158.94 4.15ZM163.12 12.74C165.08 12.74 166.74 11.59 166.74 9.63C166.74 5.74 161.91 6.70 161.91 4.88C161.91 4.29 162.37 4.01 162.93 4.01C163.52 4.01 164.12 4.34 164.64 4.92L166.18 3.45C165.41 2.55 164.24 1.96 162.94 1.96C161.28 1.96 159.58 2.96 159.58 5.06C159.58 8.63 164.43 7.77 164.43 9.61C164.43 10.19 163.94 10.57 163.13 10.57C162.17 10.57 161.42 10.03 161.03 9.21L159.13 10.40C159.81 11.71 161.28 12.74 163.12 12.74Z"></path></g><defs data-v-423bf9ae=""><linearGradient data-v-423bf9ae="" gradientTransform="rotate(25)" id="8897f92e-fa12-4b22-90d8-f760fdb978ee" x1="0%" y1="0%" x2="100%" y2="0%"><stop data-v-423bf9ae="" offset="0%" style="stop-color: rgb(1, 100, 139); stop-opacity: 1;"></stop><stop data-v-423bf9ae="" offset="100%" style="stop-color: rgb(91, 208, 164); stop-opacity: 1;"></stop></linearGradient></defs><g data-v-423bf9ae="" id="d43731c4-36da-4a34-8c1a-a1baf2c4ceec" transform="matrix(1.4222222222222223,0,0,1.4222222222222223,0.002779948545821753,0.9777777777777743)" stroke="none" fill="url(#8897f92e-fa12-4b22-90d8-f760fdb978ee)"><path d="M114.5 13.4c.8.8 2 .8 2.8 0l5.2-5.2c.1 1.1 1 2 2.1 1.9.9 0 1.6-.7 1.8-1.5l1.4-6.1c.2-1.1-.4-2.1-1.5-2.4-.3-.1-.7-.1-1 0L119 1.6c-1.1.3-1.7 1.4-1.4 2.4.2.8 1 1.4 1.8 1.5l-5 5c-.6.8-.7 2.1.1 2.9zM10.3 4c.2-1-.4-2.1-1.5-2.4L2.5.1C1.5-.2.4.4.1 1.5c-.1.3-.1.6 0 1l1.4 6.1c.3 1.1 1.3 1.7 2.4 1.5.9-.2 1.5-1 1.5-1.8l5.2 5.2c.8.8 2 .8 2.8 0 .8-.8.8-2 0-2.8l-5-5c1-.1 1.7-.8 1.9-1.7zM117.7 124c-.3 1.1.4 2.2 1.5 2.4l6.3 1.5c1.1.3 2.2-.4 2.4-1.5.1-.3.1-.6 0-.9l-1.4-6.1c-.3-1.1-1.3-1.7-2.4-1.5-.9.2-1.5 1-1.5 1.8l-5.2-5.2c-.8-.8-2-.8-2.8 0s-.8 2 0 2.8l5 5c-1 .2-1.7.8-1.9 1.7zM.7 127.4c.5.5 1.2.7 1.9.5l6.3-1.5c1.1-.3 1.7-1.4 1.4-2.4-.2-.8-1-1.4-1.8-1.5l5-5c.8-.8.8-2 0-2.8-.8-.8-2-.8-2.8 0l-5.2 5.2c-.1-1.1-1-2-2.1-1.9-.9 0-1.6.7-1.8 1.5l-1.4 6.1c-.3.6-.1 1.3.5 1.8zM91.5 97.2c.7.5 1.5.8 2.4.8 2.6 0 5.8-2.1 8.5-5.6 2.5-3.1 3.8-6.5 3.5-8.9-.2-2-1.9-3.5-3.9-3.5-2.6 0-5.8 2.1-8.5 5.6-2.5 3.1-3.8 6.5-3.5 8.9.1 1.1.7 2.1 1.5 2.7zM117 85.8c-1.1.1-1.9 1-1.9 2.1l.4 6.2c.1 1.1 1 1.9 2.1 1.9.3 0 .5-.1.8-.2L124 93c1-.5 1.4-1.6 1-2.7-.5-1-1.6-1.4-2.7-1 0 0-.1 0-.1.1l-3 1.5-.2-3.2c0-1.1-.9-2-2-1.9zM42 7.9c.2 0 .5 0 .7-.1l.9-.3c1.1-.4 1.7-1.5 1.3-2.5-.3-1.1-1.5-1.6-2.5-1.3h-.1l-1 .3c-1 .4-1.6 1.5-1.2 2.6.3.8 1.1 1.3 1.9 1.3zM52.3 1c-.7.1-1.3.3-2 .4-1.1.2-1.8 1.2-1.6 2.3.2 1.1 1.2 1.8 2.3 1.6h.1c.7-.1 1.3-.3 1.9-.4 1.1-.2 1.8-1.3 1.6-2.3-.1-1.1-1.2-1.8-2.3-1.6zM72.5 4.6h.3c1.1.1 2.1-.8 2.1-1.9S74.1.6 73 .6c-.7-.1-1.4-.1-2.1-.2-1.1-.1-2.1.7-2.2 1.8s.7 2.1 1.8 2.2c.7.1 1.4.1 2 .2zM82 6.8c1.1.2 2.1-.5 2.3-1.6.2-.9-.3-1.8-1.1-2.2-.7-.2-1.3-.4-2-.6-1-.3-2.2.2-2.5 1.3s.2 2.2 1.3 2.5h.2l1.8.6zM60.8 4.1c.7 0 1.3 0 2-.1 1.1 0 2-.9 2-2s-.9-2-2-2c-.7 0-1.4 0-2.1.1-1.1 0-2 .9-1.9 2s.9 2 2 2zM99.4 15.6c.9.7 2.1.6 2.8-.3.7-.9.6-2.1-.3-2.8-.1 0-.1-.1-.2-.1-.6-.4-1.1-.8-1.7-1.2-.9-.6-2.2-.4-2.8.5-.6.9-.4 2.2.5 2.8.6.3 1.1.7 1.7 1.1zM127.9 66.3v-2.1c0-1.1-.9-2-2-2s-2 .9-2 2v2c0 1.1.8 2 1.9 2.1h.1c1.1 0 2-.9 2-2zM126.6 76.6c.1-.7.3-1.3.4-2 .2-1.1-.5-2.1-1.6-2.3-1.1-.2-2.1.5-2.3 1.6-.1.7-.2 1.3-.4 1.9-.2 1.1.5 2.1 1.6 2.4 1 .2 2.1-.5 2.3-1.6zM120.7 34.2c-.5-1-1.6-1.4-2.6-1-1 .5-1.4 1.6-1 2.6 0 .1.1.1.1.2.3.6.6 1.2.9 1.7.5 1 1.7 1.4 2.7.9 1-.5 1.4-1.7.9-2.7-.4-.5-.7-1.1-1-1.7zM112.3 25c-.9.7-1 1.9-.4 2.8.4.5.8 1 1.2 1.6.6.9 1.9 1.1 2.8.5.9-.6 1.1-1.9.5-2.8-.4-.6-.8-1.1-1.2-1.7-.8-.9-2.1-1.1-2.9-.4zM91 10.5c1 .5 2.2 0 2.7-1 .4-1 .1-2.1-.9-2.6L91 6c-.9-.6-2.2-.3-2.7.7-.6.9-.3 2.2.7 2.7.1.1.2.1.3.2.6.3 1.2.6 1.7.9zM127.2 53.8c-.2-1.1-1.2-1.9-2.3-1.7-1.1.2-1.9 1.2-1.7 2.3.1.7.2 1.3.3 1.9.1 1 1 1.8 2 1.7h.2c1.1-.1 1.9-1.1 1.7-2.2 0-.6-.1-1.3-.2-2zM108.2 22.5c1.1 0 2-.9 2-2 0-.5-.2-1-.6-1.4l-1.5-1.5c-.8-.7-2.1-.6-2.8.2-.7.8-.7 2 .1 2.7.5.4.9.9 1.4 1.4.3.4.9.6 1.4.6zM124.7 43.7c-.3-1.1-1.4-1.7-2.4-1.4-1.1.3-1.7 1.4-1.4 2.4 0 .1.1.2.1.3.2.6.4 1.2.6 1.9.3 1.1 1.4 1.7 2.5 1.3 1.1-.3 1.7-1.4 1.3-2.5-.2-.6-.4-1.3-.7-2zM123.1 82.2c-1-.4-2.2.2-2.5 1.2l-.3.9c-.4 1 .1 2.2 1.2 2.6 1 .4 2.2-.1 2.6-1.2l.3-1c.3-1-.2-2.2-1.3-2.5zM42.1 124.1c.7.2 1.3.5 2 .7 1 .3 2.2-.2 2.5-1.3s-.2-2.2-1.3-2.5l-1.8-.6c-1-.4-2.2.2-2.6 1.2s.2 2.1 1.2 2.5zM36.4 117.2c-.6-.3-1.1-.6-1.7-.9-1-.6-2.2-.2-2.7.7-.6 1-.2 2.2.7 2.7.6.3 1.2.7 1.8 1 1 .5 2.2.1 2.7-.8.6-.9.2-2.2-.8-2.7zM28.2 112.1l-1.5-1.2c-.9-.6-2.2-.4-2.8.5-.6.8-.4 1.9.3 2.6.5.4 1.1.8 1.6 1.3.8.7 2.1.6 2.8-.3.7-.8.6-2.1-.3-2.8.1-.1 0-.1-.1-.1zM52.1 126.8c.7.1 1.3.2 2 .3h.3c1.1.1 2.1-.7 2.2-1.8.1-1.1-.7-2.1-1.8-2.2-.7-.1-1.3-.2-1.9-.3-1.1-.2-2.1.5-2.3 1.6-.4 1.1.3 2.2 1.5 2.4zM2.5 73.7h.2c1.1-.1 1.9-1.1 1.7-2.2-.1-.7-.1-1.3-.2-1.9-.1-1.1-1.1-1.9-2.2-1.8S.1 68.9.2 70c.1.7.1 1.3.2 2 .3.9 1.1 1.7 2.1 1.7zM64.1 124h-1.7c-1.1 0-2 .8-2.1 1.9 0 1.1.8 2 1.9 2.1h2.1c1.1 0 2-.9 2-2s-.9-2-2-2h-.2zM74 123.2c-.7.1-1.3.2-1.9.3-1.1.1-1.9 1-1.9 2.1.1 1.1 1 1.9 2.1 1.9h.3c.7-.1 1.3-.2 2-.3 1.1-.2 1.9-1.2 1.7-2.3-.2-1.1-1.2-1.9-2.3-1.7zM83.3 120.8l-1.8.6c-1.1.3-1.7 1.4-1.3 2.5.3 1.1 1.4 1.7 2.5 1.3.7-.2 1.3-.4 2-.6 1-.4 1.6-1.5 1.3-2.5-.4-1-1.6-1.6-2.7-1.3zM.2 59.6c0 .7-.1 1.4-.1 2.1 0 1.1.8 2 1.9 2.1 1.1 0 2-.9 2-1.9 0-.7 0-1.3.1-1.9.1-1.1-.8-2.1-1.9-2.1-1-.3-2 .6-2 1.7zM1.7 49.4c-.2.7-.3 1.3-.4 2-.2 1.1.5 2.1 1.6 2.3 1.1.2 2.1-.5 2.3-1.6.1-.7.3-1.3.4-1.9.2-1.1-.4-2.1-1.5-2.4s-2.2.5-2.4 1.6zM19.7 104.3c-.7-.8-2-.9-2.8-.2s-.9 2-.2 2.8c.5.5.9 1 1.4 1.5.8.8 2.1.9 2.9.1.8-.8.8-2.1.1-2.9-.5-.4-1-.9-1.4-1.3zM2.7 82c.3 1.1 1.4 1.7 2.5 1.4 1.1-.3 1.7-1.4 1.4-2.5-.3-.6-.4-1.2-.6-1.9-.2-1.1-1.3-1.8-2.4-1.5-1.1.2-1.8 1.3-1.5 2.4v.1c.2.7.4 1.3.6 2zM6.4 91.6c.5 1 1.6 1.5 2.6 1s1.5-1.6 1-2.6v-.1c-.3-.6-.5-1.2-.8-1.7-.4-1-1.6-1.5-2.6-1-1 .4-1.5 1.6-1 2.6.2.6.5 1.2.8 1.8zM11.6 100.5c.6.9 1.9 1.1 2.8.5.9-.6 1.1-1.9.5-2.8-.4-.5-.7-1.1-1.1-1.6-.6-.9-1.8-1.3-2.7-.7-.9.6-1.3 1.8-.7 2.7l.1.1c.3.7.7 1.2 1.1 1.8zM4.8 39.5c-.3.7-.5 1.3-.7 1.9-.4 1 .1 2.2 1.1 2.6 1 .4 2.2-.1 2.6-1.1v-.1c.2-.6.5-1.2.7-1.8.4-1-.2-2.2-1.2-2.6-1-.2-2.1.2-2.5 1.1zM10.2 36.5c.2 1 1 1.6 2 1.6h.4c1.1-.2 1.8-1.3 1.6-2.3L13 29.7c-.2-1.1-1.3-1.8-2.3-1.6-.3.1-.5.2-.7.3l-5.3 3.5c-.9.6-1.2 1.9-.6 2.8.6.9 1.9 1.2 2.8.6l2.8-1.8.5 3z"></path><circle cx="91.4" cy="119.8" r="2"></circle><circle cx="34" cy="9" r="2"></circle><path d="M65.5 53l-.1-1.6c.1.5.1 1.1.1 1.6zM34.8 67.3l9 15.8c.1.3.5.6.8.6.4 0 .7-.3.8-.6l9-15.8c4.5-3.3 7.2-8.6 7.2-14.2 0-9.4-7.6-17-17-17s-17 7.6-17 17c0 5.7 2.7 10.9 7.2 14.2zm9.8-27.5c7.3.1 13.1 6.1 13 13.4 0 4.3-2 8.4-5.5 10.9-.5.3-.9.8-1.1 1.3l-6.3 11.2-6.3-11.2c-.3-.5-.7-.9-1.1-1.3-3.5-2.5-5.5-6.6-5.5-10.9-.3-7.3 5.5-13.3 12.8-13.4z"></path><ellipse cx="44.6" cy="52.8" rx="7" ry="7"></ellipse><path d="M9 64c0 30.4 24.6 55 55 55s55-24.6 55-55S94.4 9 64 9C33.7 9.1 9.1 33.6 9 64zm29.2-38.6c.3-1.7.2-3.5-.3-5.2 5.2-3.1 10.9-5.3 16.9-6.3-.4.3-.8.7-1 1.2-.5 1.2-1.7 1.7-3.8 2.3-1.9.4-3.6 1.3-5 2.6-1 1-1.5 2.4-1.5 3.8s.7 2.7 1.7 3.6c1 .9 2.3 1.3 3.6 1.3 1.6-.1 3.2-.5 4.6-1.3 1.6-.8 3.1-1.7 4.5-2.7 1.1-.6 4.3-2.2 6.6-2 .3 0 6.4.1 10.2-8.2 0-.1.1-.2.1-.4l1.3.3c-1 1.5-2.6 4.4-1.5 6.9.4 1 .4 2 .2 3-.2.1-.3.1-.5.1-1.5-.1-11.5-.7-12.2 5.3v.3c-.1 2.2-.6 3.2-.9 3.5-.6.5-1.2.9-1.8 1.3-.3.2-.6.4-.9.5l-1.1.7c.5.4 1.1.9 1.6 1.3.5.5 1 1 1.4 1.5.6.7 1.2 1.5 1.8 2.3h.1c7.1-.6 15.5-1.2 19.4 2.5 1.5 1.5 2.2 3.5 2 5.6-.1 1.2-.7 2.3-1.7 3.1-1.4 1.3-3.4 1.8-6.1 1.7h-.3c-4.7-.2-7.3-.5-8.4-.8l-1.7-.2v.2c0 6.6-3 12.7-8.1 16.8l-1.9 3.3c-.2 1.3-.3 2.5-.2 3.8h.2c1.1-.2 4.4-.5 6 1 .9.8 1.2 2 1 3.8-.1 1.4.3 2.9 1.1 4.1l.6 1.2c.3 1.3.5 2.7.5 4.1 0 1.4.1 2.8.4 4.1.5 3 1.9 5.7 3.9 8 1.1 1.1 2.5 1.8 4.1 1.8 1.9-.1 3.7-.8 5.2-1.9 2.3-1.6 4.4-3.5 6.3-5.6 1.3-1.4 2.2-3 2.7-4.8.3-1.5.5-3 .6-4.6.1-1.6.3-3.3.8-4.8.7-1.7 1.8-3.4 3-4.8l1.8-2.4c.5-.7.9-1.4 1.3-2.1l.6-1c.5-.9 1.4-2.2.9-3.7-.3-.9-1.1-1.7-2.1-2-.5-.2-1.1-.4-1.6-.6-1.1-.3-2-.7-2.9-1.4-2.2-1.8-3.5-4.4-3.7-7.2v-.1c.6.5 1.1 1.1 1.5 1.7.3.4.6.8.9 1.1 1.7 2.1 3.9 2.9 5.9 2.3 2.1-.6 3-2.3 3.7-3.6.1-.2.3-.4.4-.6 1.3-2 1.8-3.7 1.4-5.2-.1-.6-.4-1.1-.8-1.6l.5.2c1.7.7 3.2 2 4.1 3.6l.3.6c.7 1.5 2.1 4.4 4.7 4.1 3.2-.4 4.1-5 4.2-6.1.1-.8.4-1.5.8-2.1 6.3 27.4-10.9 54.7-38.3 61-1.5.3-2.9.6-4.4.8-11.1-11.4-25.6-3.5-25.7-3.4-.1.1-.2.1-.3.2-5.3-2.1-10.2-5.1-14.5-8.9v-.1c-.6-1.7-.2-10.6.2-12.3.2-.8.5-1.6.8-2.4.8-1.8 1.2-3.7 1.1-5.6-.3-4-3.1-6.4-5.6-8.5-2.2-1.8-4-3.4-4.3-5.7-.3-2.4-.3-4.9-.1-7.3v-.2c-.1-4.6-5.4-6.1-8.6-6.3.8-4.3 2.2-8.5 4.1-12.4l.1-.1c1.2-1.3 9.5-7 12.6-8.4 2.9-.9 6.6-3 7.5-7.6z"></path><path d="M65.1 48.7c1.1.3 2.1.6 3.1.9.4.1 1.8.4 7.4.7h.3c2.6.1 3.4-.7 3.5-1.2.1-.9-.2-1.8-.8-2.4-2.3-2.3-9.1-2-14.6-1.5l.1.3c.4 1 .7 2.1 1 3.2z"></path></g><!----><g data-v-423bf9ae="" id="686e0154-d57f-4989-884e-dff4c017cb9d" fill="#000000" transform="matrix(1.9027439935767219,0,0,1.9027439935767219,200.5272483467695,54.78648311008)"><path d="M0.76 8.24L0.76 8.24L0.76 8.24Q0.76 6.92 1.37 5.72L1.37 5.72L1.37 5.72Q1.99 4.52 3.22 3.72L3.22 3.72L3.22 3.72Q4.46 2.92 6.08 2.92L6.08 2.92L6.08 2.92Q7.35 2.92 8.93 3.57L8.93 3.57L8.93 2.86L9.50 2.86L9.59 5.92L9.04 5.93L8.95 4.48L8.95 4.48Q8.87 4.41 8.59 4.24L8.59 4.24L8.59 4.24Q8.34 4.07 7.59 3.83L7.59 3.83L7.59 3.83Q6.86 3.60 5.96 3.60L5.96 3.60L5.96 3.60Q4.98 3.60 4.21 3.93L4.21 3.93L4.21 3.93Q3.45 4.27 2.98 4.83L2.98 4.83L2.98 4.83Q2.52 5.39 2.27 6.08L2.27 6.08L2.27 6.08Q2.02 6.78 2.02 7.57L2.02 7.57L2.02 7.57Q2.02 9.33 3.14 10.69L3.14 10.69L3.14 10.69Q4.26 12.05 6.12 12.05L6.12 12.05L6.12 12.05Q6.82 12.05 7.45 11.85L7.45 11.85L7.45 11.85Q8.08 11.66 8.30 11.48L8.30 11.48L8.54 11.28L8.54 8.78L6.88 8.78L6.86 8.23L10.73 8.23L10.74 8.78L9.67 8.78L9.67 11.64L8.89 11.98L8.89 11.98Q8.19 12.30 7.96 12.39L7.96 12.39L7.96 12.39Q7.71 12.48 7.07 12.61L7.07 12.61L7.07 12.61Q6.46 12.74 5.85 12.74L5.85 12.74L5.85 12.74Q4.55 12.74 3.58 12.37L3.58 12.37L3.58 12.37Q2.59 12.00 1.98 11.36L1.98 11.36L1.98 11.36Q1.39 10.76 1.07 9.94L1.07 9.94L1.07 9.94Q0.76 9.15 0.76 8.24ZM18.49 3.64L18.48 3.08L25.69 3.08L25.69 3.08Q25.70 4.14 25.76 5.28L25.76 5.28L25.21 5.30L25.21 5.30Q25.20 4.66 25.14 4.25L25.14 4.25L25.14 4.25Q25.10 3.89 25.05 3.80L25.05 3.80L25.05 3.80Q24.99 3.71 24.88 3.69L24.88 3.69L24.88 3.69Q24.78 3.68 24.19 3.68L24.19 3.68L21.81 3.68L21.81 3.68Q21.27 3.68 21.12 3.77L21.12 3.77L21.12 3.77Q21 3.86 21 4.33L21 4.33L21 6.28L21 6.28Q21 6.69 21.05 6.76L21.05 6.76L21.05 6.76Q21.12 6.84 21.46 6.84L21.46 6.84L23.58 6.84L23.58 6.84Q23.94 6.84 24.02 6.73L24.02 6.73L24.02 6.73Q24.10 6.63 24.11 6.14L24.11 6.14L24.11 5.61L24.62 5.63L24.62 8.97L24.11 8.97L24.11 8.24L24.11 8.24Q24.11 7.66 24.04 7.57L24.04 7.57L24.04 7.57Q23.95 7.46 23.60 7.46L23.60 7.46L21.51 7.46L21.51 7.46Q21.17 7.46 21.09 7.54L21.09 7.54L21.09 7.54Q21 7.63 21 7.89L21 7.89L21 11.20L21 11.20Q21 11.57 21.09 11.67L21.09 11.67L21.09 11.67Q21.17 11.77 21.44 11.77L21.44 11.77L21.44 11.77Q24.36 11.75 24.89 11.69L24.89 11.69L24.89 11.69Q25.41 11.63 25.49 11.38L25.49 11.38L25.50 11.36L25.50 11.35L25.73 10.17L26.21 10.25L25.86 12.41L18.76 12.41L18.76 11.87L19.13 11.87L19.13 11.87Q19.69 11.87 19.77 11.80L19.77 11.80L19.77 11.80Q19.87 11.72 19.87 11.33L19.87 11.33L19.87 4.24L19.87 4.24Q19.87 3.82 19.71 3.73L19.71 3.73L19.71 3.73Q19.54 3.64 18.89 3.64L18.89 3.64L18.49 3.64ZM34.47 7.83L34.47 7.83L34.47 7.83Q34.47 6.62 34.87 5.68L34.87 5.68L34.87 5.68Q35.29 4.72 35.98 4.12L35.98 4.12L35.98 4.12Q36.67 3.51 37.53 3.19L37.53 3.19L37.53 3.19Q38.37 2.88 39.32 2.88L39.32 2.88L39.32 2.88Q40.58 2.88 41.63 3.40L41.63 3.40L41.63 3.40Q42.71 3.93 43.42 5.07L43.42 5.07L43.42 5.07Q44.12 6.17 44.13 7.75L44.13 7.75L44.13 7.75Q44.13 8.70 43.82 9.54L43.82 9.54L43.82 9.54Q43.51 10.38 42.91 11.10L42.91 11.10L42.91 11.10Q42.30 11.81 41.36 12.22L41.36 12.22L41.36 12.22Q40.40 12.63 39.21 12.64L39.21 12.64L39.21 12.64Q38.08 12.64 37.14 12.23L37.14 12.23L37.14 12.23Q36.20 11.83 35.64 11.14L35.64 11.14L35.64 11.14Q35.07 10.45 34.77 9.60L34.77 9.60L34.77 9.60Q34.47 8.72 34.47 7.83ZM35.72 7.38L35.72 7.38L35.72 7.38Q35.72 8.52 36.16 9.60L36.16 9.60L36.16 9.60Q36.56 10.64 37.49 11.33L37.49 11.33L37.49 11.33Q38.40 12.03 39.59 12.04L39.59 12.04L39.59 12.04Q40.96 12.04 41.90 11.01L41.90 11.01L41.90 11.01Q42.85 9.97 42.85 8.10L42.85 8.10L42.85 8.10Q42.85 5.99 41.69 4.72L41.69 4.72L41.69 4.72Q40.54 3.46 39.03 3.45L39.03 3.45L39.03 3.45Q38.51 3.45 37.96 3.65L37.96 3.65L37.96 3.65Q37.42 3.85 36.91 4.25L36.91 4.25L36.91 4.25Q36.37 4.68 36.05 5.48L36.05 5.48L36.05 5.48Q35.72 6.27 35.72 7.38ZM61.78 10.04L61.78 10.04L62.28 9.98L62.46 10.85L62.46 10.85Q62.57 11.33 62.64 11.41L62.64 11.41L62.64 11.41Q62.71 11.49 63.12 11.64L63.12 11.64L63.12 11.64Q63.96 11.95 64.85 11.95L64.85 11.95L64.85 11.95Q65.64 11.95 66.18 11.49L66.18 11.49L66.18 11.49Q66.71 11.04 66.71 10.26L66.71 10.26L66.71 10.26Q66.71 9.65 66.25 9.21L66.25 9.21L66.25 9.21Q65.78 8.76 64.92 8.30L64.92 8.30L64.35 7.98L64.35 7.98Q63.60 7.55 63.37 7.36L63.37 7.36L63.37 7.36Q63.01 7.08 62.70 6.59L62.70 6.59L62.70 6.59Q62.38 6.10 62.38 5.46L62.38 5.46L62.38 5.46Q62.38 4.39 63.23 3.68L63.23 3.68L63.23 3.68Q64.07 2.97 65.17 2.97L65.17 2.97L65.17 2.97Q65.45 2.97 65.80 3.04L65.80 3.04L65.80 3.04Q66.00 3.08 66.34 3.17L66.34 3.17L66.58 3.25L66.58 3.25Q66.67 3.25 66.71 3.16L66.71 3.16L66.71 3.16Q66.77 3.05 66.77 2.98L66.77 2.98L66.78 2.88L67.26 2.85L67.47 5.41L66.96 5.43L66.84 4.18L66.84 4.18Q66.10 3.62 64.93 3.62L64.93 3.62L64.93 3.62Q64.29 3.62 63.79 4.05L63.79 4.05L63.79 4.05Q63.31 4.47 63.31 5.12L63.31 5.12L63.31 5.12Q63.31 5.72 63.76 6.17L63.76 6.17L63.76 6.17Q64.19 6.60 65.06 7.08L65.06 7.08L65.83 7.50L65.83 7.50Q66.78 8.03 67.31 8.59L67.31 8.59L67.31 8.59Q67.85 9.15 67.85 9.92L67.85 9.92L67.85 9.92Q67.85 10.99 66.99 11.76L66.99 11.76L66.99 11.76Q66.12 12.54 64.67 12.54L64.67 12.54L64.67 12.54Q64.11 12.54 63.60 12.41L63.60 12.41L63.60 12.41Q63.10 12.29 63.05 12.29L63.05 12.29L63.05 12.29Q62.79 12.29 62.79 12.58L62.79 12.58L62.81 12.76L62.33 12.80L62.33 12.80Q62.27 12.41 61.78 10.04ZM79.75 12.41L76.03 12.41L76.03 11.87L76.47 11.87L76.47 11.87Q76.84 11.87 76.90 11.81L76.90 11.81L76.90 11.81Q76.97 11.74 76.97 11.46L76.97 11.46L76.97 4.14L76.97 4.14Q76.97 3.81 76.89 3.72L76.89 3.72L76.89 3.72Q76.80 3.64 76.44 3.64L76.44 3.64L76.07 3.64L76.08 3.08L78.97 3.08L78.97 3.08Q80.12 3.08 80.77 3.19L80.77 3.19L80.77 3.19Q81.37 3.28 81.84 3.68L81.84 3.68L81.84 3.68Q83.03 4.64 83.03 6.19L83.03 6.19L83.03 6.19Q83.03 7.23 82.26 7.98L82.26 7.98L82.26 7.98Q81.48 8.74 80.08 8.73L80.08 8.73L80.08 8.73Q79.91 8.73 79.49 8.70L79.49 8.70L79.49 8.70Q79.38 8.69 78.96 8.62L78.96 8.62L78.96 8.62Q78.62 8.55 78.52 8.54L78.52 8.54L78.52 8.54Q78.23 8.47 78.22 8.46L78.22 8.46L78.10 8.44L78.10 11.46L78.10 11.46Q78.10 11.74 78.23 11.81L78.23 11.81L78.23 11.81Q78.34 11.87 79.06 11.87L79.06 11.87L79.75 11.87L79.75 12.41ZM78.10 4.28L78.10 8.02L78.10 8.02Q78.45 8.29 79.42 8.29L79.42 8.29L79.42 8.29Q80.55 8.29 81.13 7.75L81.13 7.75L81.13 7.75Q81.72 7.21 81.72 6.16L81.72 6.16L81.72 6.16Q81.72 4.98 80.81 4.31L80.81 4.31L80.81 4.31Q79.91 3.64 78.52 3.64L78.52 3.64L78.52 3.64Q78.27 3.64 78.19 3.75L78.19 3.75L78.19 3.75Q78.11 3.84 78.10 4.28L78.10 4.28ZM91.02 12.41L91.01 11.87L91.18 11.87L91.18 11.87Q91.57 11.87 91.70 11.73L91.70 11.73L91.70 11.73Q91.82 11.57 92.16 10.83L92.16 10.83L93.06 8.82L93.64 7.53L93.64 7.53Q93.91 6.97 93.95 6.86L93.95 6.86L93.95 6.86Q94.01 6.70 94.07 6.60L94.07 6.60L94.07 6.60Q94.12 6.51 94.13 6.45L94.13 6.45L94.23 6.21L95.66 2.74L95.95 2.74L95.95 2.74Q96.80 4.98 98.99 10.25L98.99 10.25L98.99 10.25Q99.44 11.34 99.63 11.64L99.63 11.64L99.63 11.64Q99.77 11.87 100.21 11.87L100.21 11.87L100.42 11.87L100.41 12.41L97.21 12.41L97.23 11.87L97.64 11.87L97.64 11.87Q98.26 11.87 98.26 11.70L98.26 11.70L98.26 11.70Q98.26 11.63 98.12 11.27L98.12 11.27L97.08 8.72L93.84 8.72L92.73 11.18L92.73 11.18Q92.59 11.50 92.59 11.63L92.59 11.63L92.59 11.63Q92.59 11.79 92.69 11.83L92.69 11.83L92.69 11.83Q92.78 11.87 93.17 11.87L93.17 11.87L93.74 11.87L93.74 12.41L91.02 12.41ZM95.52 4.79L94.10 8.10L96.84 8.10L95.52 4.79ZM108.43 5.35L107.93 5.33L107.93 5.33Q108.06 4.17 108.14 3.08L108.14 3.08L116.22 3.08L116.22 3.08Q116.14 4.13 116.11 4.53L116.11 4.53L116.11 4.53Q116.07 5.26 116.05 5.32L116.05 5.32L115.55 5.30L115.55 5.30Q115.63 4.34 115.63 4.16L115.63 4.16L115.63 4.16Q115.63 3.88 115.49 3.79L115.49 3.79L115.49 3.79Q115.32 3.69 114.91 3.69L114.91 3.69L113.31 3.69L113.31 3.69Q112.80 3.69 112.68 3.79L112.68 3.79L112.68 3.79Q112.58 3.87 112.57 4.36L112.57 4.36L112.57 11.22L112.57 11.22Q112.57 11.66 112.72 11.76L112.72 11.76L112.72 11.76Q112.88 11.87 113.39 11.87L113.39 11.87L113.95 11.87L113.96 12.41L110.27 12.40L110.27 11.87L110.49 11.87L110.49 11.87Q111.16 11.87 111.30 11.79L111.30 11.79L111.30 11.79Q111.45 11.70 111.45 11.28L111.45 11.28L111.45 4.48L111.45 4.48Q111.45 3.92 111.35 3.80L111.35 3.80L111.35 3.80Q111.25 3.69 110.82 3.69L110.82 3.69L109.35 3.69L109.35 3.69Q109.17 3.69 109.10 3.71L109.10 3.71L109.10 3.71Q109.03 3.72 108.92 3.72L108.92 3.72L108.92 3.72Q108.90 3.72 108.78 3.79L108.78 3.79L108.78 3.79Q108.70 3.84 108.67 3.86L108.67 3.86L108.67 3.86Q108.64 3.88 108.60 3.99L108.60 3.99L108.60 3.99Q108.58 4.05 108.55 4.14L108.55 4.14L108.55 4.14Q108.52 4.21 108.50 4.36L108.50 4.36L108.50 4.36Q108.47 4.59 108.47 4.61L108.47 4.61L108.47 4.61Q108.47 4.80 108.46 4.95L108.46 4.95L108.46 4.95Q108.46 5.02 108.45 5.15L108.45 5.15L108.45 5.15Q108.45 5.29 108.43 5.35L108.43 5.35ZM124.54 3.64L123.96 3.64L123.97 3.08L127.48 3.08L127.48 3.64L127.25 3.64L127.25 3.64Q126.70 3.64 126.53 3.73L126.53 3.73L126.53 3.73Q126.40 3.81 126.40 4.28L126.40 4.28L126.40 11.22L126.40 11.22Q126.40 11.68 126.51 11.77L126.51 11.77L126.51 11.77Q126.62 11.87 127.15 11.87L127.15 11.87L127.70 11.87L127.71 12.41L124.13 12.41L124.11 11.87L124.48 11.87L124.48 11.87Q125.04 11.87 125.15 11.77L125.15 11.77L125.15 11.77Q125.26 11.67 125.26 11.25L125.26 11.25L125.26 4.14L125.26 4.14Q125.26 3.77 125.16 3.71L125.16 3.71L125.16 3.71Q125.05 3.64 124.54 3.64L124.54 3.64ZM135.46 12.41L135.45 11.87L135.62 11.87L135.62 11.87Q136.01 11.87 136.14 11.73L136.14 11.73L136.14 11.73Q136.26 11.57 136.60 10.83L136.60 10.83L137.50 8.82L138.08 7.53L138.08 7.53Q138.35 6.97 138.39 6.86L138.39 6.86L138.39 6.86Q138.46 6.70 138.51 6.60L138.51 6.60L138.51 6.60Q138.56 6.51 138.57 6.45L138.57 6.45L138.67 6.21L140.10 2.74L140.39 2.74L140.39 2.74Q141.24 4.98 143.43 10.25L143.43 10.25L143.43 10.25Q143.88 11.34 144.07 11.64L144.07 11.64L144.07 11.64Q144.21 11.87 144.65 11.87L144.65 11.87L144.86 11.87L144.85 12.41L141.65 12.41L141.67 11.87L142.08 11.87L142.08 11.87Q142.70 11.87 142.70 11.70L142.70 11.70L142.70 11.70Q142.70 11.63 142.56 11.27L142.56 11.27L141.52 8.72L138.28 8.72L137.17 11.18L137.17 11.18Q137.03 11.50 137.03 11.63L137.03 11.63L137.03 11.63Q137.03 11.79 137.13 11.83L137.13 11.83L137.13 11.83Q137.22 11.87 137.61 11.87L137.61 11.87L138.18 11.87L138.18 12.41L135.46 12.41ZM139.96 4.79L138.54 8.10L141.29 8.10L139.96 4.79ZM153.08 3.64L152.59 3.64L152.61 3.08L156.19 3.08L156.19 3.64L155.56 3.64L155.56 3.64Q155.18 3.64 155.07 3.72L155.07 3.72L155.07 3.72Q154.96 3.80 154.96 4.16L154.96 4.16L154.96 11.22L154.96 11.22Q154.96 11.57 155.04 11.67L155.04 11.67L155.04 11.67Q155.13 11.77 155.42 11.77L155.42 11.77L155.42 11.77Q158.29 11.74 158.95 11.63L158.95 11.63L158.95 11.63Q159.16 11.61 159.24 11.39L159.24 11.39L159.24 11.39Q159.33 11.17 159.52 10.05L159.52 10.05L160.02 10.08L159.55 12.41L152.79 12.41L152.78 11.87L153.17 11.87L153.17 11.87Q153.67 11.87 153.74 11.80L153.74 11.80L153.74 11.80Q153.82 11.72 153.83 11.33L153.83 11.33L153.83 4.09L153.83 4.09Q153.83 3.80 153.67 3.72L153.67 3.72L153.67 3.72Q153.52 3.64 153.08 3.64L153.08 3.64ZM177.33 12.41L177.32 11.87L177.49 11.87L177.49 11.87Q177.88 11.87 178.01 11.73L178.01 11.73L178.01 11.73Q178.13 11.57 178.47 10.83L178.47 10.83L179.38 8.82L179.95 7.53L179.95 7.53Q180.22 6.97 180.26 6.86L180.26 6.86L180.26 6.86Q180.33 6.70 180.38 6.60L180.38 6.60L180.38 6.60Q180.43 6.51 180.44 6.45L180.44 6.45L180.54 6.21L181.97 2.74L182.26 2.74L182.26 2.74Q183.11 4.98 185.30 10.25L185.30 10.25L185.30 10.25Q185.75 11.34 185.94 11.64L185.94 11.64L185.94 11.64Q186.08 11.87 186.52 11.87L186.52 11.87L186.73 11.87L186.72 12.41L183.52 12.41L183.54 11.87L183.96 11.87L183.96 11.87Q184.57 11.87 184.57 11.70L184.57 11.70L184.57 11.70Q184.57 11.63 184.43 11.27L184.43 11.27L183.39 8.72L180.15 8.72L179.04 11.18L179.04 11.18Q178.90 11.50 178.90 11.63L178.90 11.63L178.90 11.63Q178.90 11.79 179.00 11.83L179.00 11.83L179.00 11.83Q179.09 11.87 179.48 11.87L179.48 11.87L180.05 11.87L180.05 12.41L177.33 12.41ZM181.83 4.79L180.41 8.10L183.16 8.10L181.83 4.79ZM194.48 3.64L194.46 3.08L196.64 3.08L202.37 10.48L202.37 4.14L202.37 4.14Q202.37 3.81 202.22 3.72L202.22 3.72L202.22 3.72Q202.06 3.64 201.61 3.64L201.61 3.64L201.11 3.64L201.14 3.08L204.12 3.08L204.12 3.64L203.80 3.64L203.80 3.64Q203.33 3.64 203.18 3.75L203.18 3.75L203.18 3.75Q203.03 3.86 203.03 4.25L203.03 4.25L203.03 12.32L203.03 12.47L203.03 12.47Q203.03 12.52 203.02 12.57L203.02 12.57L203.02 12.57Q203.01 12.61 202.97 12.64L202.97 12.64L202.97 12.64Q202.96 12.65 202.90 12.65L202.90 12.65L202.71 12.65L202.65 12.65L202.62 12.65L202.60 12.64L202.60 12.64Q202.57 12.64 202.56 12.63L202.56 12.63L202.56 12.63Q202.54 12.61 202.54 12.60L202.54 12.60L202.54 12.60Q202.54 12.58 202.53 12.57L202.53 12.57L202.53 12.57Q202.50 12.54 202.47 12.50L202.47 12.50L202.47 12.50Q202.46 12.48 202.44 12.45L202.44 12.45L202.44 12.45Q202.42 12.41 202.41 12.40L202.41 12.40L196.30 4.56L196.37 11.22L196.37 11.22Q196.37 11.67 196.53 11.77L196.53 11.77L196.53 11.77Q196.69 11.87 197.40 11.87L197.40 11.87L197.64 11.87L197.64 12.41L194.70 12.41L194.70 11.87L195.13 11.87L195.13 11.87Q195.50 11.87 195.61 11.76L195.61 11.76L195.61 11.76Q195.71 11.66 195.71 11.25L195.71 11.25L195.71 3.80L195.57 3.64L194.48 3.64ZM211.90 3.64L211.86 3.08L215.64 3.08L215.64 3.08Q216.96 3.08 217.83 3.19L217.83 3.19L217.83 3.19Q218.65 3.29 219.34 3.69L219.34 3.69L219.34 3.69Q220.29 4.27 220.79 5.24L220.79 5.24L220.79 5.24Q221.29 6.21 221.29 7.39L221.29 7.39L221.29 7.39Q221.29 8.05 221.14 8.65L221.14 8.65L221.14 8.65Q220.99 9.29 220.60 9.98L220.60 9.98L220.60 9.98Q220.17 10.73 219.60 11.21L219.60 11.21L219.60 11.21Q218.98 11.76 218.00 12.08L218.00 12.08L218.00 12.08Q217 12.41 215.73 12.41L215.73 12.41L212.11 12.41L212.10 11.87L212.47 11.87L212.47 11.87Q212.99 11.87 213.10 11.79L213.10 11.79L213.10 11.79Q213.21 11.70 213.21 11.25L213.21 11.25L213.21 4.14L213.21 4.14Q213.21 3.77 213.11 3.71L213.11 3.71L213.11 3.71Q213.00 3.64 212.49 3.64L212.49 3.64L211.90 3.64ZM214.34 4.39L214.34 11.22L214.34 11.22Q214.34 11.67 214.50 11.77L214.50 11.77L214.50 11.77Q214.66 11.87 215.53 11.87L215.53 11.87L215.53 11.87Q216.58 11.87 217.38 11.61L217.38 11.61L217.38 11.61Q218.23 11.35 218.67 10.99L218.67 10.99L218.67 10.99Q219.16 10.58 219.46 10.05L219.46 10.05L219.46 10.05Q219.77 9.52 219.90 8.96L219.90 8.96L219.90 8.96Q220.02 8.41 220.02 7.82L220.02 7.82L220.02 7.82Q220.02 7.03 219.75 6.34L219.75 6.34L219.75 6.34Q219.49 5.65 218.96 5.05L218.96 5.05L218.96 5.05Q218.43 4.46 217.52 4.09L217.52 4.09L217.52 4.09Q216.60 3.73 215.43 3.73L215.43 3.73L214.92 3.73L214.92 3.73Q214.55 3.73 214.45 3.85L214.45 3.85L214.45 3.85Q214.34 3.99 214.34 4.39L214.34 4.39ZM239.42 3.64L238.83 3.64L238.84 3.08L242.35 3.08L242.35 3.64L242.12 3.64L242.12 3.64Q241.58 3.64 241.40 3.73L241.40 3.73L241.40 3.73Q241.27 3.81 241.27 4.28L241.27 4.28L241.27 11.22L241.27 11.22Q241.27 11.68 241.38 11.77L241.38 11.77L241.38 11.77Q241.49 11.87 242.02 11.87L242.02 11.87L242.57 11.87L242.58 12.41L239.00 12.41L238.98 11.87L239.35 11.87L239.35 11.87Q239.91 11.87 240.02 11.77L240.02 11.77L240.02 11.77Q240.13 11.67 240.13 11.25L240.13 11.25L240.13 4.14L240.13 4.14Q240.13 3.77 240.03 3.71L240.03 3.71L240.03 3.71Q239.92 3.64 239.42 3.64L239.42 3.64ZM250.60 5.35L250.10 5.33L250.10 5.33Q250.22 4.17 250.30 3.08L250.30 3.08L258.38 3.08L258.38 3.08Q258.30 4.13 258.28 4.53L258.28 4.53L258.28 4.53Q258.23 5.26 258.21 5.32L258.21 5.32L257.71 5.30L257.71 5.30Q257.80 4.34 257.80 4.16L257.80 4.16L257.80 4.16Q257.80 3.88 257.65 3.79L257.65 3.79L257.65 3.79Q257.48 3.69 257.08 3.69L257.08 3.69L255.47 3.69L255.47 3.69Q254.97 3.69 254.84 3.79L254.84 3.79L254.84 3.79Q254.75 3.87 254.74 4.36L254.74 4.36L254.74 11.22L254.74 11.22Q254.74 11.66 254.88 11.76L254.88 11.76L254.88 11.76Q255.04 11.87 255.55 11.87L255.55 11.87L256.12 11.87L256.13 12.41L252.44 12.40L252.44 11.87L252.66 11.87L252.66 11.87Q253.33 11.87 253.47 11.79L253.47 11.79L253.47 11.79Q253.61 11.70 253.61 11.28L253.61 11.28L253.61 4.48L253.61 4.48Q253.61 3.92 253.51 3.80L253.51 3.80L253.51 3.80Q253.42 3.69 252.99 3.69L252.99 3.69L251.52 3.69L251.52 3.69Q251.34 3.69 251.27 3.71L251.27 3.71L251.27 3.71Q251.20 3.72 251.09 3.72L251.09 3.72L251.09 3.72Q251.06 3.72 250.95 3.79L250.95 3.79L250.95 3.79Q250.87 3.84 250.84 3.86L250.84 3.86L250.84 3.86Q250.81 3.88 250.77 3.99L250.77 3.99L250.77 3.99Q250.74 4.05 250.71 4.14L250.71 4.14L250.71 4.14Q250.69 4.21 250.67 4.36L250.67 4.36L250.67 4.36Q250.64 4.59 250.64 4.61L250.64 4.61L250.64 4.61Q250.64 4.80 250.63 4.95L250.63 4.95L250.63 4.95Q250.63 5.02 250.62 5.15L250.62 5.15L250.62 5.15Q250.61 5.29 250.60 5.35L250.60 5.35ZM275.67 10.04L275.67 10.04L276.16 9.98L276.34 10.85L276.34 10.85Q276.45 11.33 276.52 11.41L276.52 11.41L276.52 11.41Q276.59 11.49 277.00 11.64L277.00 11.64L277.00 11.64Q277.84 11.95 278.74 11.95L278.74 11.95L278.74 11.95Q279.52 11.95 280.06 11.49L280.06 11.49L280.06 11.49Q280.59 11.04 280.59 10.26L280.59 10.26L280.59 10.26Q280.59 9.65 280.14 9.21L280.14 9.21L280.14 9.21Q279.66 8.76 278.80 8.30L278.80 8.30L278.23 7.98L278.23 7.98Q277.48 7.55 277.25 7.36L277.25 7.36L277.25 7.36Q276.89 7.08 276.58 6.59L276.58 6.59L276.58 6.59Q276.27 6.10 276.27 5.46L276.27 5.46L276.27 5.46Q276.27 4.39 277.11 3.68L277.11 3.68L277.11 3.68Q277.95 2.97 279.06 2.97L279.06 2.97L279.06 2.97Q279.34 2.97 279.69 3.04L279.69 3.04L279.69 3.04Q279.88 3.08 280.22 3.17L280.22 3.17L280.46 3.25L280.46 3.25Q280.55 3.25 280.59 3.16L280.59 3.16L280.59 3.16Q280.65 3.05 280.65 2.98L280.65 2.98L280.66 2.88L281.14 2.85L281.35 5.41L280.85 5.43L280.72 4.18L280.72 4.18Q279.98 3.62 278.82 3.62L278.82 3.62L278.82 3.62Q278.17 3.62 277.67 4.05L277.67 4.05L277.67 4.05Q277.19 4.47 277.19 5.12L277.19 5.12L277.19 5.12Q277.19 5.72 277.64 6.17L277.64 6.17L277.64 6.17Q278.07 6.60 278.94 7.08L278.94 7.08L279.71 7.50L279.71 7.50Q280.66 8.03 281.20 8.59L281.20 8.59L281.20 8.59Q281.73 9.15 281.73 9.92L281.73 9.92L281.73 9.92Q281.73 10.99 280.88 11.76L280.88 11.76L280.88 11.76Q280.01 12.54 278.55 12.54L278.55 12.54L278.55 12.54Q277.99 12.54 277.49 12.41L277.49 12.41L277.49 12.41Q276.99 12.29 276.93 12.29L276.93 12.29L276.93 12.29Q276.68 12.29 276.68 12.58L276.68 12.58L276.69 12.76L276.21 12.80L276.21 12.80Q276.15 12.41 275.67 10.04ZM289.93 3.64L289.91 3.08L297.12 3.08L297.12 3.08Q297.14 4.14 297.19 5.28L297.19 5.28L296.65 5.30L296.65 5.30Q296.63 4.66 296.58 4.25L296.58 4.25L296.58 4.25Q296.54 3.89 296.48 3.80L296.48 3.80L296.48 3.80Q296.43 3.71 296.31 3.69L296.31 3.69L296.31 3.69Q296.21 3.68 295.63 3.68L295.63 3.68L293.25 3.68L293.25 3.68Q292.70 3.68 292.56 3.77L292.56 3.77L292.56 3.77Q292.43 3.86 292.43 4.33L292.43 4.33L292.43 6.28L292.43 6.28Q292.43 6.69 292.49 6.76L292.49 6.76L292.49 6.76Q292.56 6.84 292.90 6.84L292.90 6.84L295.01 6.84L295.01 6.84Q295.37 6.84 295.46 6.73L295.46 6.73L295.46 6.73Q295.54 6.63 295.54 6.14L295.54 6.14L295.54 5.61L296.06 5.63L296.06 8.97L295.54 8.97L295.54 8.24L295.54 8.24Q295.54 7.66 295.47 7.57L295.47 7.57L295.47 7.57Q295.39 7.46 295.04 7.46L295.04 7.46L292.94 7.46L292.94 7.46Q292.61 7.46 292.52 7.54L292.52 7.54L292.52 7.54Q292.43 7.63 292.43 7.89L292.43 7.89L292.43 11.20L292.43 11.20Q292.43 11.57 292.52 11.67L292.52 11.67L292.52 11.67Q292.61 11.77 292.88 11.77L292.88 11.77L292.88 11.77Q295.80 11.75 296.32 11.69L296.32 11.69L296.32 11.69Q296.84 11.63 296.93 11.38L296.93 11.38L296.93 11.36L296.94 11.35L297.17 10.17L297.64 10.25L297.29 12.41L290.19 12.41L290.19 11.87L290.56 11.87L290.56 11.87Q291.12 11.87 291.20 11.80L291.20 11.80L291.20 11.80Q291.30 11.72 291.30 11.33L291.30 11.33L291.30 4.24L291.30 4.24Q291.30 3.82 291.15 3.73L291.15 3.73L291.15 3.73Q290.98 3.64 290.32 3.64L290.32 3.64L289.93 3.64ZM305.85 3.64L305.46 3.64L305.48 3.08L308.70 3.08L308.70 3.08Q309.83 3.08 310.43 3.21L310.43 3.21L310.43 3.21Q311.08 3.37 311.54 3.75L311.54 3.75L311.54 3.75Q312.55 4.57 312.55 5.71L312.55 5.71L312.55 5.71Q312.55 6.43 312.07 7.04L312.07 7.04L312.07 7.04Q311.58 7.66 310.55 7.92L310.55 7.92L313.24 11.49L313.24 11.49Q313.54 11.87 313.84 11.87L313.84 11.87L314.44 11.87L314.47 12.41L312.44 12.41L309.44 8.10L309.27 8.10L309.27 8.10Q309.23 8.10 309.18 8.11L309.18 8.11L309.18 8.11Q309.12 8.11 309.11 8.11L309.11 8.11L309.11 8.11Q308.23 8.11 307.83 8.03L307.83 8.03L307.83 11.46L307.83 11.46Q307.83 11.76 307.97 11.81L307.97 11.81L307.97 11.81Q308.10 11.87 308.80 11.87L308.80 11.87L309.51 11.87L309.48 12.41L305.76 12.41L305.76 11.87L306.08 11.87L306.08 11.87Q306.54 11.87 306.61 11.81L306.61 11.81L306.61 11.81Q306.69 11.74 306.69 11.46L306.69 11.46L306.69 4.14L306.69 4.14Q306.69 3.82 306.50 3.73L306.50 3.73L306.50 3.73Q306.28 3.64 305.85 3.64L305.85 3.64ZM307.83 4.28L307.83 7.57L307.83 7.57Q308.01 7.70 308.72 7.71L308.72 7.71L308.72 7.71Q310.00 7.71 310.58 7.27L310.58 7.27L310.58 7.27Q311.17 6.84 311.17 5.92L311.17 5.92L311.17 5.92Q311.17 4.92 310.39 4.27L310.39 4.27L310.39 4.27Q309.63 3.64 308.25 3.64L308.25 3.64L308.25 3.64Q308 3.64 307.92 3.75L307.92 3.75L307.92 3.75Q307.84 3.84 307.83 4.28L307.83 4.28ZM322.71 3.64L322.22 3.64L322.22 3.08L325.73 3.08L325.72 3.64L324.98 3.64L324.98 3.64Q324.65 3.64 324.65 3.82L324.65 3.82L324.65 3.82Q324.65 3.98 324.84 4.48L324.84 4.48L327.44 10.94L330.38 4.18L330.38 4.18Q330.45 3.97 330.46 3.92L330.46 3.92L330.46 3.92Q330.46 3.79 330.36 3.74L330.36 3.74L330.36 3.74Q330.26 3.68 330.11 3.65L330.11 3.65L330.11 3.65Q330.03 3.64 329.77 3.64L329.77 3.64L329.32 3.64L329.29 3.08L332.13 3.08L332.10 3.64L331.70 3.64L331.70 3.64Q331.38 3.64 331.22 3.83L331.22 3.83L331.22 3.83Q331.14 3.93 330.67 4.94L330.67 4.94L330.67 4.94Q330.46 5.46 330.39 5.57L330.39 5.57L327.26 12.63L327.02 12.63L323.78 4.73L323.78 4.73Q323.46 3.93 323.31 3.79L323.31 3.79L323.31 3.79Q323.16 3.63 322.71 3.64L322.71 3.64ZM340.46 3.64L339.87 3.64L339.88 3.08L343.40 3.08L343.40 3.64L343.16 3.64L343.16 3.64Q342.62 3.64 342.45 3.73L342.45 3.73L342.45 3.73Q342.31 3.81 342.31 4.28L342.31 4.28L342.31 11.22L342.31 11.22Q342.31 11.68 342.42 11.77L342.42 11.77L342.42 11.77Q342.53 11.87 343.06 11.87L343.06 11.87L343.61 11.87L343.62 12.41L340.04 12.41L340.03 11.87L340.39 11.87L340.39 11.87Q340.95 11.87 341.06 11.77L341.06 11.77L341.06 11.77Q341.17 11.67 341.17 11.25L341.17 11.25L341.17 4.14L341.17 4.14Q341.17 3.77 341.07 3.71L341.07 3.71L341.07 3.71Q340.96 3.64 340.46 3.64L340.46 3.64ZM351.74 8.02L351.74 8.02L351.74 8.02Q351.74 6.86 352.21 5.83L352.21 5.83L352.21 5.83Q352.68 4.85 353.43 4.27L353.43 4.27L353.43 4.27Q354.18 3.69 355.07 3.37L355.07 3.37L355.07 3.37Q355.97 3.05 356.81 3.05L356.81 3.05L356.81 3.05Q357.68 3.05 358.35 3.16L358.35 3.16L358.35 3.16Q358.98 3.26 359.27 3.37L359.27 3.37L359.27 3.37Q359.58 3.48 359.61 3.48L359.61 3.48L359.61 3.48Q359.78 3.48 359.80 3.41L359.80 3.41L359.80 3.41Q359.83 3.33 359.83 3.09L359.83 3.09L359.83 2.97L360.36 2.97L360.36 2.97Q360.40 4.30 360.53 5.64L360.53 5.64L360.03 5.65L360.03 5.65Q360.00 5.40 359.99 5.26L359.99 5.26L359.99 5.26Q359.99 5.20 359.98 5.13L359.98 5.13L359.98 5.13Q359.97 5.07 359.97 5.02L359.97 5.02L359.97 5.02Q359.96 4.98 359.96 4.95L359.96 4.95L359.96 4.95Q359.93 4.84 359.93 4.74L359.93 4.74L359.93 4.74Q359.93 4.68 359.89 4.59L359.89 4.59L359.89 4.59Q359.89 4.57 359.86 4.55L359.86 4.55L359.86 4.55Q359.83 4.52 359.83 4.50L359.83 4.50L359.83 4.50Q359.80 4.44 359.73 4.41L359.73 4.41L359.73 4.41Q359.69 4.38 359.67 4.37L359.67 4.37L359.67 4.37Q359.64 4.36 359.61 4.35L359.61 4.35L359.61 4.35Q359.60 4.35 359.57 4.33L359.57 4.33L359.57 4.33Q359.55 4.31 359.51 4.29L359.51 4.29L359.51 4.29Q359.47 4.27 359.43 4.25L359.43 4.25L359.43 4.25Q359.20 4.16 359.17 4.14L359.17 4.14L359.17 4.14Q358.83 3.96 358.18 3.83L358.18 3.83L358.18 3.83Q357.51 3.71 356.85 3.71L356.85 3.71L356.85 3.71Q355.13 3.71 354.03 4.84L354.03 4.84L354.03 4.84Q352.93 5.99 352.93 7.62L352.93 7.62L352.93 7.62Q352.93 9.35 354.15 10.69L354.15 10.69L354.15 10.69Q355.35 12.02 357.17 12.02L357.17 12.02L357.17 12.02Q358.18 12.02 359.12 11.49L359.12 11.49L359.12 11.49Q360.07 10.94 360.10 10.58L360.10 10.58L360.14 9.41L360.63 9.41L360.55 11.45L360.55 11.45Q360.48 11.49 360.35 11.57L360.35 11.57L360.35 11.57Q360.29 11.60 359.83 11.85L359.83 11.85L359.83 11.85Q359.45 12.05 359.01 12.23L359.01 12.23L359.01 12.23Q358.65 12.39 358.00 12.51L358.00 12.51L358.00 12.51Q357.39 12.63 356.82 12.64L356.82 12.64L356.82 12.64Q354.44 12.64 353.08 11.39L353.08 11.39L353.08 11.39Q351.74 10.14 351.74 8.02ZM368.68 3.64L368.66 3.08L375.87 3.08L375.87 3.08Q375.89 4.14 375.94 5.28L375.94 5.28L375.40 5.30L375.40 5.30Q375.38 4.66 375.33 4.25L375.33 4.25L375.33 4.25Q375.29 3.89 375.23 3.80L375.23 3.80L375.23 3.80Q375.18 3.71 375.06 3.69L375.06 3.69L375.06 3.69Q374.96 3.68 374.38 3.68L374.38 3.68L372.00 3.68L372.00 3.68Q371.45 3.68 371.31 3.77L371.31 3.77L371.31 3.77Q371.18 3.86 371.18 4.33L371.18 4.33L371.18 6.28L371.18 6.28Q371.18 6.69 371.24 6.76L371.24 6.76L371.24 6.76Q371.31 6.84 371.65 6.84L371.65 6.84L373.76 6.84L373.76 6.84Q374.12 6.84 374.21 6.73L374.21 6.73L374.21 6.73Q374.29 6.63 374.29 6.14L374.29 6.14L374.29 5.61L374.81 5.63L374.81 8.97L374.29 8.97L374.29 8.24L374.29 8.24Q374.29 7.66 374.22 7.57L374.22 7.57L374.22 7.57Q374.14 7.46 373.79 7.46L373.79 7.46L371.69 7.46L371.69 7.46Q371.36 7.46 371.27 7.54L371.27 7.54L371.27 7.54Q371.18 7.63 371.18 7.89L371.18 7.89L371.18 11.20L371.18 11.20Q371.18 11.57 371.27 11.67L371.27 11.67L371.27 11.67Q371.36 11.77 371.63 11.77L371.63 11.77L371.63 11.77Q374.55 11.75 375.07 11.69L375.07 11.69L375.07 11.69Q375.59 11.63 375.68 11.38L375.68 11.38L375.68 11.36L375.69 11.35L375.92 10.17L376.39 10.25L376.04 12.41L368.94 12.41L368.94 11.87L369.31 11.87L369.31 11.87Q369.87 11.87 369.95 11.80L369.95 11.80L369.95 11.80Q370.05 11.72 370.05 11.33L370.05 11.33L370.05 4.24L370.05 4.24Q370.05 3.82 369.90 3.73L369.90 3.73L369.90 3.73Q369.73 3.64 369.07 3.64L369.07 3.64L368.68 3.64ZM384.24 10.04L384.24 10.04L384.73 9.98L384.92 10.85L384.92 10.85Q385.03 11.33 385.10 11.41L385.10 11.41L385.10 11.41Q385.16 11.49 385.57 11.64L385.57 11.64L385.57 11.64Q386.42 11.95 387.31 11.95L387.31 11.95L387.31 11.95Q388.10 11.95 388.64 11.49L388.64 11.49L388.64 11.49Q389.17 11.04 389.17 10.26L389.17 10.26L389.17 10.26Q389.17 9.65 388.71 9.21L388.71 9.21L388.71 9.21Q388.23 8.76 387.38 8.30L387.38 8.30L386.80 7.98L386.80 7.98Q386.06 7.55 385.83 7.36L385.83 7.36L385.83 7.36Q385.46 7.08 385.15 6.59L385.15 6.59L385.15 6.59Q384.84 6.10 384.84 5.46L384.84 5.46L384.84 5.46Q384.84 4.39 385.68 3.68L385.68 3.68L385.68 3.68Q386.52 2.97 387.63 2.97L387.63 2.97L387.63 2.97Q387.91 2.97 388.26 3.04L388.26 3.04L388.26 3.04Q388.46 3.08 388.79 3.17L388.79 3.17L389.03 3.25L389.03 3.25Q389.13 3.25 389.17 3.16L389.17 3.16L389.17 3.16Q389.22 3.05 389.22 2.98L389.22 2.98L389.24 2.88L389.72 2.85L389.93 5.41L389.42 5.43L389.30 4.18L389.30 4.18Q388.55 3.62 387.39 3.62L387.39 3.62L387.39 3.62Q386.75 3.62 386.24 4.05L386.24 4.05L386.24 4.05Q385.77 4.47 385.77 5.12L385.77 5.12L385.77 5.12Q385.77 5.72 386.22 6.17L386.22 6.17L386.22 6.17Q386.65 6.60 387.52 7.08L387.52 7.08L388.29 7.50L388.29 7.50Q389.24 8.03 389.77 8.59L389.77 8.59L389.77 8.59Q390.30 9.15 390.30 9.92L390.30 9.92L390.30 9.92Q390.30 10.99 389.45 11.76L389.45 11.76L389.45 11.76Q388.58 12.54 387.13 12.54L387.13 12.54L387.13 12.54Q386.57 12.54 386.06 12.41L386.06 12.41L386.06 12.41Q385.56 12.29 385.51 12.29L385.51 12.29L385.51 12.29Q385.25 12.29 385.25 12.58L385.25 12.58L385.27 12.76L384.79 12.80L384.79 12.80Q384.73 12.41 384.24 10.04Z"></path></g></svg>